[2025-06-03 13:07:25] [INFO] Starting setup for lane 4 (IP 192.168.4.104, DISPLAY :14), attempt 1
[2025-06-03 13:07:25] [INFO] Checking network reachability for 192.168.4.104
[2025-06-03 13:07:25] [WARN] 192.168.4.104 unreachable, retrying in 5 seconds...
[2025-06-03 13:07:31] [WARN] 192.168.4.104 unreachable, retrying in 5 seconds...
[2025-06-03 13:07:36] [INFO] Generated XAUTHORITY file at /tmp/.Xauthority.HbpxZ6
[2025-06-03 13:07:36] [INFO] Starting Xvfb on display :14
[2025-06-03 13:07:36] [INFO] Xvfb started with PID 1399
The XKEYBOARD keymap compiler (xkbcomp) reports:
> Warning:          Could not resolve keysym XF86CameraAccessEnable
> Warning:          Could not resolve keysym XF86CameraAccessDisable
> Warning:          Could not resolve keysym XF86CameraAccessToggle
> Warning:          Could not resolve keysym XF86NextElement
> Warning:          Could not resolve keysym XF86PreviousElement
> Warning:          Could not resolve keysym XF86AutopilotEngageToggle
> Warning:          Could not resolve keysym XF86MarkWaypoint
> Warning:          Could not resolve keysym XF86Sos
> Warning:          Could not resolve keysym XF86NavChart
> Warning:          Could not resolve keysym XF86FishingChart
> Warning:          Could not resolve keysym XF86SingleRangeRadar
> Warning:          Could not resolve keysym XF86DualRangeRadar
> Warning:          Could not resolve keysym XF86RadarOverlay
> Warning:          Could not resolve keysym XF86TraditionalSonar
> Warning:          Could not resolve keysym XF86ClearvuSonar
> Warning:          Could not resolve keysym XF86SidevuSonar
> Warning:          Could not resolve keysym XF86NavInfo
Errors from xkbcomp are not fatal to the X server
[2025-06-03 13:07:38] [INFO] Generating xauth entry for :14
[2025-06-03 13:07:38] [INFO] xauth entry generated
[2025-06-03 13:07:38] [INFO] DISPLAY set to :14
[2025-06-03 13:07:38] [INFO] Starting vncviewer on 192.168.4.104 (lane 4)
[2025-06-03 13:07:38] [INFO] vncviewer started with PID 1440
The XKEYBOARD keymap compiler (xkbcomp) reports:
> Warning:          Could not resolve keysym XF86CameraAccessEnable
> Warning:          Could not resolve keysym XF86CameraAccessDisable
> Warning:          Could not resolve keysym XF86CameraAccessToggle
> Warning:          Could not resolve keysym XF86NextElement
> Warning:          Could not resolve keysym XF86PreviousElement
> Warning:          Could not resolve keysym XF86AutopilotEngageToggle
> Warning:          Could not resolve keysym XF86MarkWaypoint
> Warning:          Could not resolve keysym XF86Sos
> Warning:          Could not resolve keysym XF86NavChart
> Warning:          Could not resolve keysym XF86FishingChart
> Warning:          Could not resolve keysym XF86SingleRangeRadar
> Warning:          Could not resolve keysym XF86DualRangeRadar
> Warning:          Could not resolve keysym XF86RadarOverlay
> Warning:          Could not resolve keysym XF86TraditionalSonar
> Warning:          Could not resolve keysym XF86ClearvuSonar
> Warning:          Could not resolve keysym XF86SidevuSonar
> Warning:          Could not resolve keysym XF86NavInfo
Errors from xkbcomp are not fatal to the X server

TigerVNC Viewer v1.13.1
Built on: 2024-04-01 08:26
Copyright (C) 1999-2022 TigerVNC Team and many others (see README.rst)
See https://www.tigervnc.org for information on TigerVNC.

Tue Jun  3 13:07:38 2025
 DecodeManager: Detected 4 CPU core(s)
 DecodeManager: Creating 4 decoder thread(s)
 CConn:       Connected to host 192.168.4.104 port 5900
 CConnection: Server supports RFB protocol version 3.8
 CConnection: Using RFB protocol version 3.8
 CConnection: Choosing security type VncAuth(2)
 DesktopWindow: Adjusting window size to avoid accidental full-screen request
 CConn:       Using pixel format depth 24 (32bpp) little-endian rgb888
XRequest.131: BadWindow (invalid Window parameter) 0x200005
[2025-06-03 13:07:43] [INFO] Starting ffmpeg capturing :14 and streaming to /home/user/vnc-hls/hls/lane4/stream.m3u8
Input #0, x11grab, from ':14':
  Duration: N/A, start: 1748970463.459039, bitrate: 122880 kb/s
  Stream #0:0: Video: rawvideo (BGR[0] / 0x524742), bgr0, 480x800, 122880 kb/s, 10 fps, 10 tbr, 1000k tbn
[out#0/hls @ 0x5bfe41e2e8c0] Codec AVOption sc_threshold (Scene change threshold) has not been used for any stream. The most likely reason is either wrong type (e.g. a video option with no video streams) or that it is a private option of some encoder which was not actually used for any stream.
Stream mapping:
  Stream #0:0 -> #0:0 (rawvideo (native) -> h264 (h264_vaapi))
Press [q] to stop, [?] for help
Output #0, hls, to '/home/user/vnc-hls/hls/lane4/stream.m3u8':
  Metadata:
    encoder         : Lavf60.16.100
  Stream #0:0: Video: h264 (High), vaapi(tv, progressive), 480x800, q=2-31, 1000 kb/s, 10 fps, 90k tbn
    Metadata:
      encoder         : Lavc60.31.102 h264_vaapi
frame=    0 fps=0.0 q=0.0 size=       0kB time=N/A bitrate=N/A speed=N/A    frame=    7 fps=0.0 q=-0.0 size=N/A time=00:00:00.60 bitrate=N/A speed=1.01x    frame=   13 fps= 11 q=-0.0 size=N/A time=00:00:01.20 bitrate=N/A speed=   1x    frame=   19 fps= 11 q=-0.0 size=N/A time=00:00:01.80 bitrate=N/A speed=   1x    frame=   24 fps= 10 q=-0.0 size=N/A time=00:00:02.30 bitrate=N/A speed=   1x    frame=   30 fps= 10 q=-0.0 size=N/A time=00:00:02.90 bitrate=N/A speed=   1x    frame=   35 fps= 10 q=-0.0 size=N/A time=00:00:03.40 bitrate=N/A speed=   1x    frame=   40 fps= 10 q=-0.0 size=N/A time=00:00:03.90 bitrate=N/A speed=   1x    frame=   46 fps= 10 q=-0.0 size=N/A time=00:00:04.50 bitrate=N/A speed=   1x    frame=   51 fps= 10 q=-0.0 size=N/A time=00:00:05.00 bitrate=N/A speed=   1x    frame=   57 fps= 10 q=-0.0 size=N/A time=00:00:05.60 bitrate=N/A speed=   1x    [hls @ 0x5bfe41e2f580] Opening '/home/user/vnc-hls/hls/lane4/segment_20250603-130743.ts' for writing
[hls @ 0x5bfe41e2f580] Opening '/home/user/vnc-hls/hls/lane4/stream.m3u8.tmp' for writing
frame=   62 fps= 10 q=-0.0 size=N/A time=00:00:06.10 bitrate=N/A speed=   1x    frame=   67 fps= 10 q=-0.0 size=N/A time=00:00:06.60 bitrate=N/A speed=   1x    frame=   73 fps= 10 q=-0.0 size=N/A time=00:00:07.20 bitrate=N/A speed=   1x    frame=   79 fps= 10 q=-0.0 size=N/A time=00:00:07.80 bitrate=N/A speed=   1x    frame=   84 fps= 10 q=-0.0 size=N/A time=00:00:08.30 bitrate=N/A speed=   1x    frame=   90 fps= 10 q=-0.0 size=N/A time=00:00:08.90 bitrate=N/A speed=   1x    [hls @ 0x5bfe41e2f580] Opening '/home/user/vnc-hls/hls/lane4/segment_20250603-130749.ts' for writing
[hls @ 0x5bfe41e2f580] Opening '/home/user/vnc-hls/hls/lane4/stream.m3u8.tmp' for writing
frame=   95 fps= 10 q=-0.0 size=N/A time=00:00:09.40 bitrate=N/A speed=   1x    frame=  100 fps= 10 q=-0.0 size=N/A time=00:00:09.90 bitrate=N/A speed=   1x    frame=  106 fps= 10 q=-0.0 size=N/A time=00:00:10.50 bitrate=N/A speed=   1x    frame=  111 fps= 10 q=-0.0 size=N/A time=00:00:11.00 bitrate=N/A speed=   1x    frame=  116 fps= 10 q=-0.0 size=N/A time=00:00:11.50 bitrate=N/A speed=   1x    [hls @ 0x5bfe41e2f580] Opening '/home/user/vnc-hls/hls/lane4/segment_20250603-130752.ts' for writing
[hls @ 0x5bfe41e2f580] Opening '/home/user/vnc-hls/hls/lane4/stream.m3u8.tmp' for writing
frame=  122 fps= 10 q=-0.0 size=N/A time=00:00:12.10 bitrate=N/A speed=   1x    frame=  128 fps= 10 q=-0.0 size=N/A time=00:00:12.70 bitrate=N/A speed=   1x    frame=  133 fps= 10 q=-0.0 size=N/A time=00:00:13.20 bitrate=N/A speed=   1x    frame=  138 fps= 10 q=-0.0 size=N/A time=00:00:13.70 bitrate=N/A speed=   1x    frame=  144 fps= 10 q=-0.0 size=N/A time=00:00:14.30 bitrate=N/A speed=   1x    frame=  150 fps= 10 q=-0.0 size=N/A time=00:00:14.90 bitrate=N/A speed=   1x    frame=  156 fps= 10 q=-0.0 size=N/A time=00:00:15.50 bitrate=N/A speed=   1x    frame=  162 fps= 10 q=-0.0 size=N/A time=00:00:16.10 bitrate=N/A speed=   1x    frame=  168 fps= 10 q=-0.0 size=N/A time=00:00:16.70 bitrate=N/A speed=   1x    frame=  173 fps= 10 q=-0.0 size=N/A time=00:00:17.20 bitrate=N/A speed=   1x    frame=  179 fps= 10 q=-0.0 size=N/A time=00:00:17.80 bitrate=N/A speed=   1x    [hls @ 0x5bfe41e2f580] Opening '/home/user/vnc-hls/hls/lane4/segment_20250603-130755.ts' for writing
[hls @ 0x5bfe41e2f580] Opening '/home/user/vnc-hls/hls/lane4/stream.m3u8.tmp' for writing
frame=  185 fps= 10 q=-0.0 size=N/A time=00:00:18.40 bitrate=N/A speed=   1x    frame=  191 fps= 10 q=-0.0 size=N/A time=00:00:19.00 bitrate=N/A speed=   1x    frame=  196 fps= 10 q=-0.0 size=N/A time=00:00:19.50 bitrate=N/A speed=   1x    frame=  202 fps= 10 q=-0.0 size=N/A time=00:00:20.10 bitrate=N/A speed=   1x    frame=  208 fps= 10 q=-0.0 size=N/A time=00:00:20.70 bitrate=N/A speed=   1x    [hls @ 0x5bfe41e2f580] Opening '/home/user/vnc-hls/hls/lane4/segment_20250603-130801.ts' for writing
[hls @ 0x5bfe41e2f580] Opening '/home/user/vnc-hls/hls/lane4/stream.m3u8.tmp' for writing
frame=  213 fps= 10 q=-0.0 size=N/A time=00:00:21.20 bitrate=N/A speed=   1x    frame=  219 fps= 10 q=-0.0 size=N/A time=00:00:21.80 bitrate=N/A speed=   1x    frame=  225 fps= 10 q=-0.0 size=N/A time=00:00:22.40 bitrate=N/A speed=   1x    frame=  231 fps= 10 q=-0.0 size=N/A time=00:00:23.00 bitrate=N/A speed=   1x    frame=  237 fps= 10 q=-0.0 size=N/A time=00:00:23.60 bitrate=N/A speed=   1x    [hls @ 0x5bfe41e2f580] Opening '/home/user/vnc-hls/hls/lane4/segment_20250603-130804.ts' for writing
[hls @ 0x5bfe41e2f580] Opening '/home/user/vnc-hls/hls/lane4/stream.m3u8.tmp' for writing
frame=  243 fps= 10 q=-0.0 size=N/A time=00:00:24.20 bitrate=N/A speed=   1x    frame=  248 fps= 10 q=-0.0 size=N/A time=00:00:24.70 bitrate=N/A speed=   1x    frame=  254 fps= 10 q=-0.0 size=N/A time=00:00:25.30 bitrate=N/A speed=   1x    frame=  260 fps= 10 q=-0.0 size=N/A time=00:00:25.90 bitrate=N/A speed=   1x    frame=  266 fps= 10 q=-0.0 size=N/A time=00:00:26.50 bitrate=N/A speed=   1x    frame=  272 fps= 10 q=-0.0 size=N/A time=00:00:27.10 bitrate=N/A speed=   1x    frame=  278 fps= 10 q=-0.0 size=N/A time=00:00:27.70 bitrate=N/A speed=   1x    frame=  283 fps= 10 q=-0.0 size=N/A time=00:00:28.20 bitrate=N/A speed=   1x    frame=  289 fps= 10 q=-0.0 size=N/A time=00:00:28.80 bitrate=N/A speed=   1x    frame=  295 fps= 10 q=-0.0 size=N/A time=00:00:29.40 bitrate=N/A speed=   1x    [hls @ 0x5bfe41e2f580] Opening '/home/user/vnc-hls/hls/lane4/segment_20250603-130807.ts' for writing
[hls @ 0x5bfe41e2f580] Opening '/home/user/vnc-hls/hls/lane4/stream.m3u8.tmp' for writing
frame=  301 fps= 10 q=-0.0 size=N/A time=00:00:30.00 bitrate=N/A speed=   1x    frame=  307 fps= 10 q=-0.0 size=N/A time=00:00:30.60 bitrate=N/A speed=   1x    frame=  312 fps= 10 q=-0.0 size=N/A time=00:00:31.10 bitrate=N/A speed=   1x    frame=  317 fps= 10 q=-0.0 size=N/A time=00:00:31.60 bitrate=N/A speed=   1x    frame=  323 fps= 10 q=-0.0 size=N/A time=00:00:32.20 bitrate=N/A speed=   1x    frame=  329 fps= 10 q=-0.0 size=N/A time=00:00:32.80 bitrate=N/A speed=   1x    [hls @ 0x5bfe41e2f580] Opening '/home/user/vnc-hls/hls/lane4/segment_20250603-130813.ts' for writing
[hls @ 0x5bfe41e2f580] Opening '/home/user/vnc-hls/hls/lane4/stream.m3u8.tmp' for writing
frame=  334 fps= 10 q=-0.0 size=N/A time=00:00:33.30 bitrate=N/A speed=   1x    frame=  339 fps= 10 q=-0.0 size=N/A time=00:00:33.80 bitrate=N/A speed=   1x    frame=  344 fps= 10 q=-0.0 size=N/A time=00:00:34.30 bitrate=N/A speed=   1x    frame=  350 fps= 10 q=-0.0 size=N/A time=00:00:34.90 bitrate=N/A speed=   1x    frame=  356 fps= 10 q=-0.0 size=N/A time=00:00:35.50 bitrate=N/A speed=   1x    [hls @ 0x5bfe41e2f580] Opening '/home/user/vnc-hls/hls/lane4/segment_20250603-130816.ts' for writing
[hls @ 0x5bfe41e2f580] Opening '/home/user/vnc-hls/hls/lane4/stream.m3u8.tmp' for writing
frame=  361 fps= 10 q=-0.0 size=N/A time=00:00:36.00 bitrate=N/A speed=   1x    frame=  367 fps= 10 q=-0.0 size=N/A time=00:00:36.60 bitrate=N/A speed=   1x    frame=  372 fps= 10 q=-0.0 size=N/A time=00:00:37.10 bitrate=N/A speed=   1x    frame=  377 fps= 10 q=-0.0 size=N/A time=00:00:37.60 bitrate=N/A speed=   1x    frame=  383 fps= 10 q=-0.0 size=N/A time=00:00:38.20 bitrate=N/A speed=   1x    frame=  389 fps= 10 q=-0.0 size=N/A time=00:00:38.80 bitrate=N/A speed=   1x    frame=  394 fps= 10 q=-0.0 size=N/A time=00:00:39.30 bitrate=N/A speed=   1x    frame=  400 fps= 10 q=-0.0 size=N/A time=00:00:39.90 bitrate=N/A speed=   1x    frame=  406 fps= 10 q=-0.0 size=N/A time=00:00:40.50 bitrate=N/A speed=   1x    frame=  411 fps= 10 q=-0.0 size=N/A time=00:00:41.00 bitrate=N/A speed=   1x    frame=  416 fps= 10 q=-0.0 size=N/A time=00:00:41.50 bitrate=N/A speed=   1x    [hls @ 0x5bfe41e2f580] Opening '/home/user/vnc-hls/hls/lane4/segment_20250603-130819.ts' for writing
[hls @ 0x5bfe41e2f580] Opening '/home/user/vnc-hls/hls/lane4/stream.m3u8.tmp' for writing
frame=  422 fps= 10 q=-0.0 size=N/A time=00:00:42.10 bitrate=N/A speed=   1x    frame=  427 fps= 10 q=-0.0 size=N/A time=00:00:42.60 bitrate=N/A speed=   1x    frame=  433 fps= 10 q=-0.0 size=N/A time=00:00:43.20 bitrate=N/A speed=   1x    frame=  439 fps= 10 q=-0.0 size=N/A time=00:00:43.80 bitrate=N/A speed=   1x    frame=  445 fps= 10 q=-0.0 size=N/A time=00:00:44.40 bitrate=N/A speed=   1x    [hls @ 0x5bfe41e2f580] Opening '/home/user/vnc-hls/hls/lane4/segment_20250603-130825.ts' for writing
[hls @ 0x5bfe41e2f580] Opening '/home/user/vnc-hls/hls/lane4/stream.m3u8.tmp' for writing
frame=  451 fps= 10 q=-0.0 size=N/A time=00:00:45.00 bitrate=N/A speed=   1x    frame=  456 fps= 10 q=-0.0 size=N/A time=00:00:45.50 bitrate=N/A speed=   1x    frame=  461 fps= 10 q=-0.0 size=N/A time=00:00:46.00 bitrate=N/A speed=   1x    frame=  467 fps= 10 q=-0.0 size=N/A time=00:00:46.60 bitrate=N/A speed=   1x    frame=  472 fps= 10 q=-0.0 size=N/A time=00:00:47.10 bitrate=N/A speed=   1x    frame=  477 fps= 10 q=-0.0 size=N/A time=00:00:47.60 bitrate=N/A speed=   1x    [hls @ 0x5bfe41e2f580] Opening '/home/user/vnc-hls/hls/lane4/segment_20250603-130828.ts' for writing
[hls @ 0x5bfe41e2f580] Opening '/home/user/vnc-hls/hls/lane4/stream.m3u8.tmp' for writing
frame=  483 fps= 10 q=-0.0 size=N/A time=00:00:48.20 bitrate=N/A speed=   1x    frame=  488 fps= 10 q=-0.0 size=N/A time=00:00:48.70 bitrate=N/A speed=   1x    frame=  493 fps= 10 q=-0.0 size=N/A time=00:00:49.20 bitrate=N/A speed=   1x    frame=  498 fps= 10 q=-0.0 size=N/A time=00:00:49.70 bitrate=N/A speed=   1x    frame=  504 fps= 10 q=-0.0 size=N/A time=00:00:50.30 bitrate=N/A speed=   1x    frame=  510 fps= 10 q=-0.0 size=N/A time=00:00:50.90 bitrate=N/A speed=   1x    frame=  516 fps= 10 q=-0.0 size=N/A time=00:00:51.50 bitrate=N/A speed=   1x    frame=  521 fps= 10 q=-0.0 size=N/A time=00:00:52.00 bitrate=N/A speed=   1x    frame=  527 fps= 10 q=-0.0 size=N/A time=00:00:52.60 bitrate=N/A speed=   1x    frame=  533 fps= 10 q=-0.0 size=N/A time=00:00:53.20 bitrate=N/A speed=   1x    frame=  539 fps= 10 q=-0.0 size=N/A time=00:00:53.80 bitrate=N/A speed=   1x    [hls @ 0x5bfe41e2f580] Opening '/home/user/vnc-hls/hls/lane4/segment_20250603-130831.ts' for writing
[hls @ 0x5bfe41e2f580] Opening '/home/user/vnc-hls/hls/lane4/stream.m3u8.tmp' for writing
frame=  545 fps= 10 q=-0.0 size=N/A time=00:00:54.40 bitrate=N/A speed=   1x    frame=  550 fps= 10 q=-0.0 size=N/A time=00:00:54.90 bitrate=N/A speed=   1x    frame=  555 fps= 10 q=-0.0 size=N/A time=00:00:55.40 bitrate=N/A speed=   1x    frame=  561 fps= 10 q=-0.0 size=N/A time=00:00:56.00 bitrate=N/A speed=   1x    frame=  566 fps= 10 q=-0.0 size=N/A time=00:00:56.50 bitrate=N/A speed=   1x    [hls @ 0x5bfe41e2f580] Opening '/home/user/vnc-hls/hls/lane4/segment_20250603-130837.ts' for writing
[hls @ 0x5bfe41e2f580] Opening '/home/user/vnc-hls/hls/lane4/stream.m3u8.tmp' for writing
frame=  571 fps= 10 q=-0.0 size=N/A time=00:00:57.00 bitrate=N/A speed=   1x    frame=  577 fps= 10 q=-0.0 size=N/A time=00:00:57.60 bitrate=N/A speed=   1x    frame=  583 fps= 10 q=-0.0 size=N/A time=00:00:58.20 bitrate=N/A speed=   1x    frame=  589 fps= 10 q=-0.0 size=N/A time=00:00:58.80 bitrate=N/A speed=   1x    frame=  594 fps= 10 q=-0.0 size=N/A time=00:00:59.30 bitrate=N/A speed=   1x    frame=  600 fps= 10 q=-0.0 size=N/A time=00:00:59.90 bitrate=N/A speed=   1x    [hls @ 0x5bfe41e2f580] Opening '/home/user/vnc-hls/hls/lane4/segment_20250603-130840.ts' for writing
[hls @ 0x5bfe41e2f580] Opening '/home/user/vnc-hls/hls/lane4/stream.m3u8.tmp' for writing
frame=  605 fps= 10 q=-0.0 size=N/A time=00:01:00.40 bitrate=N/A speed=   1x    frame=  610 fps= 10 q=-0.0 size=N/A time=00:01:00.90 bitrate=N/A speed=   1x    frame=  616 fps= 10 q=-0.0 size=N/A time=00:01:01.50 bitrate=N/A speed=   1x    frame=  621 fps= 10 q=-0.0 size=N/A time=00:01:02.00 bitrate=N/A speed=   1x    frame=  627 fps= 10 q=-0.0 size=N/A time=00:01:02.60 bitrate=N/A speed=   1x    frame=  632 fps= 10 q=-0.0 size=N/A time=00:01:03.10 bitrate=N/A speed=   1x    frame=  638 fps= 10 q=-0.0 size=N/A time=00:01:03.70 bitrate=N/A speed=   1x    frame=  644 fps= 10 q=-0.0 size=N/A time=00:01:04.30 bitrate=N/A speed=   1x    frame=  650 fps= 10 q=-0.0 size=N/A time=00:01:04.90 bitrate=N/A speed=   1x    frame=  656 fps= 10 q=-0.0 size=N/A time=00:01:05.50 bitrate=N/A speed=   1x    [hls @ 0x5bfe41e2f580] Opening '/home/user/vnc-hls/hls/lane4/segment_20250603-130843.ts' for writing
[hls @ 0x5bfe41e2f580] Opening '/home/user/vnc-hls/hls/lane4/stream.m3u8.tmp' for writing
frame=  661 fps= 10 q=-0.0 size=N/A time=00:01:06.00 bitrate=N/A speed=   1x    frame=  667 fps= 10 q=-0.0 size=N/A time=00:01:06.60 bitrate=N/A speed=   1x    frame=  673 fps= 10 q=-0.0 size=N/A time=00:01:07.20 bitrate=N/A speed=   1x    frame=  679 fps= 10 q=-0.0 size=N/A time=00:01:07.80 bitrate=N/A speed=   1x    frame=  684 fps= 10 q=-0.0 size=N/A time=00:01:08.30 bitrate=N/A speed=   1x    frame=  690 fps= 10 q=-0.0 size=N/A time=00:01:08.90 bitrate=N/A speed=   1x    [hls @ 0x5bfe41e2f580] Opening '/home/user/vnc-hls/hls/lane4/segment_20250603-130849.ts' for writing
[hls @ 0x5bfe41e2f580] Opening '/home/user/vnc-hls/hls/lane4/stream.m3u8.tmp' for writing
frame=  696 fps= 10 q=-0.0 size=N/A time=00:01:09.50 bitrate=N/A speed=   1x    frame=  702 fps= 10 q=-0.0 size=N/A time=00:01:10.10 bitrate=N/A speed=   1x    frame=  708 fps= 10 q=-0.0 size=N/A time=00:01:10.70 bitrate=N/A speed=   1x    frame=  713 fps= 10 q=-0.0 size=N/A time=00:01:11.20 bitrate=N/A speed=   1x    frame=  718 fps= 10 q=-0.0 size=N/A time=00:01:11.70 bitrate=N/A speed=   1x    [hls @ 0x5bfe41e2f580] Opening '/home/user/vnc-hls/hls/lane4/segment_20250603-130852.ts' for writing
[hls @ 0x5bfe41e2f580] Opening '/home/user/vnc-hls/hls/lane4/stream.m3u8.tmp' for writing
frame=  724 fps= 10 q=-0.0 size=N/A time=00:01:12.30 bitrate=N/A speed=   1x    frame=  729 fps= 10 q=-0.0 size=N/A time=00:01:12.80 bitrate=N/A speed=   1x    frame=  735 fps= 10 q=-0.0 size=N/A time=00:01:13.40 bitrate=N/A speed=   1x    frame=  741 fps= 10 q=-0.0 size=N/A time=00:01:14.00 bitrate=N/A speed=   1x    frame=  747 fps= 10 q=-0.0 size=N/A time=00:01:14.60 bitrate=N/A speed=   1x    frame=  753 fps= 10 q=-0.0 size=N/A time=00:01:15.20 bitrate=N/A speed=   1x    frame=  759 fps= 10 q=-0.0 size=N/A time=00:01:15.80 bitrate=N/A speed=   1x    frame=  764 fps= 10 q=-0.0 size=N/A time=00:01:16.30 bitrate=N/A speed=   1x    frame=  769 fps= 10 q=-0.0 size=N/A time=00:01:16.80 bitrate=N/A speed=   1x    frame=  775 fps= 10 q=-0.0 size=N/A time=00:01:17.40 bitrate=N/A speed=   1x    frame=  780 fps= 10 q=-0.0 size=N/A time=00:01:17.90 bitrate=N/A speed=   1x    [hls @ 0x5bfe41e2f580] Opening '/home/user/vnc-hls/hls/lane4/segment_20250603-130855.ts' for writing
[hls @ 0x5bfe41e2f580] Opening '/home/user/vnc-hls/hls/lane4/stream.m3u8.tmp' for writing
frame=  786 fps= 10 q=-0.0 size=N/A time=00:01:18.50 bitrate=N/A speed=   1x    frame=  792 fps= 10 q=-0.0 size=N/A time=00:01:19.10 bitrate=N/A speed=   1x    frame=  798 fps= 10 q=-0.0 size=N/A time=00:01:19.70 bitrate=N/A speed=   1x    frame=  803 fps= 10 q=-0.0 size=N/A time=00:01:20.20 bitrate=N/A speed=   1x    frame=  809 fps= 10 q=-0.0 size=N/A time=00:01:20.80 bitrate=N/A speed=   1x    [hls @ 0x5bfe41e2f580] Opening '/home/user/vnc-hls/hls/lane4/segment_20250603-130901.ts' for writing
[hls @ 0x5bfe41e2f580] Opening '/home/user/vnc-hls/hls/lane4/stream.m3u8.tmp' for writing
frame=  814 fps= 10 q=-0.0 size=N/A time=00:01:21.30 bitrate=N/A speed=   1x    frame=  820 fps= 10 q=-0.0 size=N/A time=00:01:21.90 bitrate=N/A speed=   1x    frame=  826 fps= 10 q=-0.0 size=N/A time=00:01:22.50 bitrate=N/A speed=   1x    frame=  831 fps= 10 q=-0.0 size=N/A time=00:01:23.00 bitrate=N/A speed=   1x    frame=  837 fps= 10 q=-0.0 size=N/A time=00:01:23.60 bitrate=N/A speed=   1x    [hls @ 0x5bfe41e2f580] Opening '/home/user/vnc-hls/hls/lane4/segment_20250603-130904.ts' for writing
[hls @ 0x5bfe41e2f580] Opening '/home/user/vnc-hls/hls/lane4/stream.m3u8.tmp' for writing
frame=  842 fps= 10 q=-0.0 size=N/A time=00:01:24.10 bitrate=N/A speed=   1x    frame=  848 fps= 10 q=-0.0 size=N/A time=00:01:24.70 bitrate=N/A speed=   1x    frame=  855 fps= 10 q=-0.0 size=N/A time=00:01:25.30 bitrate=N/A speed=   1x    frame=  860 fps= 10 q=-0.0 size=N/A time=00:01:25.90 bitrate=N/A speed=   1x    frame=  866 fps= 10 q=-0.0 size=N/A time=00:01:26.50 bitrate=N/A speed=   1x    frame=  872 fps= 10 q=-0.0 size=N/A time=00:01:27.10 bitrate=N/A speed=   1x    frame=  878 fps= 10 q=-0.0 size=N/A time=00:01:27.70 bitrate=N/A speed=   1x    frame=  883 fps= 10 q=-0.0 size=N/A time=00:01:28.20 bitrate=N/A speed=   1x    frame=  888 fps= 10 q=-0.0 size=N/A time=00:01:28.70 bitrate=N/A speed=   1x    frame=  893 fps= 10 q=-0.0 size=N/A time=00:01:29.20 bitrate=N/A speed=   1x    frame=  899 fps= 10 q=-0.0 size=N/A time=00:01:29.80 bitrate=N/A speed=   1x    [hls @ 0x5bfe41e2f580] Opening '/home/user/vnc-hls/hls/lane4/segment_20250603-130907.ts' for writing
[hls @ 0x5bfe41e2f580] Opening '/home/user/vnc-hls/hls/lane4/stream.m3u8.tmp' for writing
frame=  904 fps= 10 q=-0.0 size=N/A time=00:01:30.30 bitrate=N/A speed=   1x    frame=  909 fps= 10 q=-0.0 size=N/A time=00:01:30.80 bitrate=N/A speed=   1x    frame=  914 fps= 10 q=-0.0 size=N/A time=00:01:31.30 bitrate=N/A speed=   1x    frame=  920 fps= 10 q=-0.0 size=N/A time=00:01:31.90 bitrate=N/A speed=   1x    frame=  925 fps= 10 q=-0.0 size=N/A time=00:01:32.40 bitrate=N/A speed=   1x    [hls @ 0x5bfe41e2f580] Opening '/home/user/vnc-hls/hls/lane4/segment_20250603-130913.ts' for writing
[hls @ 0x5bfe41e2f580] Opening '/home/user/vnc-hls/hls/lane4/stream.m3u8.tmp' for writing
frame=  931 fps= 10 q=-0.0 size=N/A time=00:01:33.00 bitrate=N/A speed=   1x    frame=  936 fps= 10 q=-0.0 size=N/A time=00:01:33.50 bitrate=N/A speed=   1x    frame=  942 fps= 10 q=-0.0 size=N/A time=00:01:34.10 bitrate=N/A speed=   1x    frame=  948 fps= 10 q=-0.0 size=N/A time=00:01:34.70 bitrate=N/A speed=   1x    frame=  953 fps= 10 q=-0.0 size=N/A time=00:01:35.20 bitrate=N/A speed=   1x    frame=  959 fps= 10 q=-0.0 size=N/A time=00:01:35.80 bitrate=N/A speed=   1x    [hls @ 0x5bfe41e2f580] Opening '/home/user/vnc-hls/hls/lane4/segment_20250603-130916.ts' for writing
[hls @ 0x5bfe41e2f580] Opening '/home/user/vnc-hls/hls/lane4/stream.m3u8.tmp' for writing
frame=  964 fps= 10 q=-0.0 size=N/A time=00:01:36.30 bitrate=N/A speed=   1x    frame=  970 fps= 10 q=-0.0 size=N/A time=00:01:36.90 bitrate=N/A speed=   1x    frame=  976 fps= 10 q=-0.0 size=N/A time=00:01:37.50 bitrate=N/A speed=   1x    frame=  982 fps= 10 q=-0.0 size=N/A time=00:01:38.10 bitrate=N/A speed=   1x    frame=  987 fps= 10 q=-0.0 size=N/A time=00:01:38.60 bitrate=N/A speed=   1x    frame=  993 fps= 10 q=-0.0 size=N/A time=00:01:39.20 bitrate=N/A speed=   1x    frame=  998 fps= 10 q=-0.0 size=N/A time=00:01:39.70 bitrate=N/A speed=   1x    frame= 1004 fps= 10 q=-0.0 size=N/A time=00:01:40.30 bitrate=N/A speed=   1x    frame= 1010 fps= 10 q=-0.0 size=N/A time=00:01:40.90 bitrate=N/A speed=   1x    frame= 1015 fps= 10 q=-0.0 size=N/A time=00:01:41.40 bitrate=N/A speed=   1x    frame= 1020 fps= 10 q=-0.0 size=N/A time=00:01:41.90 bitrate=N/A speed=   1x    [hls @ 0x5bfe41e2f580] Opening '/home/user/vnc-hls/hls/lane4/segment_20250603-130919.ts' for writing
[hls @ 0x5bfe41e2f580] Opening '/home/user/vnc-hls/hls/lane4/stream.m3u8.tmp' for writing
frame= 1025 fps= 10 q=-0.0 size=N/A time=00:01:42.40 bitrate=N/A speed=   1x    frame= 1031 fps= 10 q=-0.0 size=N/A time=00:01:43.00 bitrate=N/A speed=   1x    frame= 1036 fps= 10 q=-0.0 size=N/A time=00:01:43.50 bitrate=N/A speed=   1x    frame= 1042 fps= 10 q=-0.0 size=N/A time=00:01:44.10 bitrate=N/A speed=   1x    frame= 1047 fps= 10 q=-0.0 size=N/A time=00:01:44.60 bitrate=N/A speed=   1x    [hls @ 0x5bfe41e2f580] Opening '/home/user/vnc-hls/hls/lane4/segment_20250603-130925.ts' for writing
[hls @ 0x5bfe41e2f580] Opening '/home/user/vnc-hls/hls/lane4/stream.m3u8.tmp' for writing
frame= 1053 fps= 10 q=-0.0 size=N/A time=00:01:45.20 bitrate=N/A speed=   1x    frame= 1058 fps= 10 q=-0.0 size=N/A time=00:01:45.70 bitrate=N/A speed=   1x    frame= 1064 fps= 10 q=-0.0 size=N/A time=00:01:46.30 bitrate=N/A speed=   1x    frame= 1069 fps= 10 q=-0.0 size=N/A time=00:01:46.80 bitrate=N/A speed=   1x    frame= 1075 fps= 10 q=-0.0 size=N/A time=00:01:47.40 bitrate=N/A speed=   1x    [hls @ 0x5bfe41e2f580] Opening '/home/user/vnc-hls/hls/lane4/segment_20250603-130928.ts' for writing
[hls @ 0x5bfe41e2f580] Opening '/home/user/vnc-hls/hls/lane4/stream.m3u8.tmp' for writing
frame= 1081 fps= 10 q=-0.0 size=N/A time=00:01:48.00 bitrate=N/A speed=   1x    frame= 1087 fps= 10 q=-0.0 size=N/A time=00:01:48.60 bitrate=N/A speed=   1x    frame= 1092 fps= 10 q=-0.0 size=N/A time=00:01:49.10 bitrate=N/A speed=   1x    frame= 1097 fps= 10 q=-0.0 size=N/A time=00:01:49.60 bitrate=N/A speed=   1x    frame= 1103 fps= 10 q=-0.0 size=N/A time=00:01:50.20 bitrate=N/A speed=   1x    frame= 1109 fps= 10 q=-0.0 size=N/A time=00:01:50.80 bitrate=N/A speed=   1x    frame= 1115 fps= 10 q=-0.0 size=N/A time=00:01:51.40 bitrate=N/A speed=   1x    frame= 1121 fps= 10 q=-0.0 size=N/A time=00:01:52.00 bitrate=N/A speed=   1x    frame= 1127 fps= 10 q=-0.0 size=N/A time=00:01:52.60 bitrate=N/A speed=   1x    frame= 1133 fps= 10 q=-0.0 size=N/A time=00:01:53.20 bitrate=N/A speed=   1x    frame= 1138 fps= 10 q=-0.0 size=N/A time=00:01:53.70 bitrate=N/A speed=   1x    [hls @ 0x5bfe41e2f580] Opening '/home/user/vnc-hls/hls/lane4/segment_20250603-130931.ts' for writing
[hls @ 0x5bfe41e2f580] Opening '/home/user/vnc-hls/hls/lane4/stream.m3u8.tmp' for writing
frame= 1143 fps= 10 q=-0.0 size=N/A time=00:01:54.20 bitrate=N/A speed=   1x    frame= 1149 fps= 10 q=-0.0 size=N/A time=00:01:54.80 bitrate=N/A speed=   1x    frame= 1155 fps= 10 q=-0.0 size=N/A time=00:01:55.40 bitrate=N/A speed=   1x    frame= 1161 fps= 10 q=-0.0 size=N/A time=00:01:56.00 bitrate=N/A speed=   1x    frame= 1166 fps= 10 q=-0.0 size=N/A time=00:01:56.50 bitrate=N/A speed=   1x    [hls @ 0x5bfe41e2f580] Opening '/home/user/vnc-hls/hls/lane4/segment_20250603-130937.ts' for writing
[hls @ 0x5bfe41e2f580] Opening '/home/user/vnc-hls/hls/lane4/stream.m3u8.tmp' for writing
frame= 1171 fps= 10 q=-0.0 size=N/A time=00:01:57.00 bitrate=N/A speed=   1x    frame= 1177 fps= 10 q=-0.0 size=N/A time=00:01:57.60 bitrate=N/A speed=   1x    frame= 1182 fps= 10 q=-0.0 size=N/A time=00:01:58.10 bitrate=N/A speed=   1x    frame= 1187 fps= 10 q=-0.0 size=N/A time=00:01:58.60 bitrate=N/A speed=   1x    frame= 1193 fps= 10 q=-0.0 size=N/A time=00:01:59.20 bitrate=N/A speed=   1x    frame= 1198 fps= 10 q=-0.0 size=N/A time=00:01:59.70 bitrate=N/A speed=   1x    [hls @ 0x5bfe41e2f580] Opening '/home/user/vnc-hls/hls/lane4/segment_20250603-130940.ts' for writing
[hls @ 0x5bfe41e2f580] Opening '/home/user/vnc-hls/hls/lane4/stream.m3u8.tmp' for writing
frame= 1204 fps= 10 q=-0.0 size=N/A time=00:02:00.30 bitrate=N/A speed=   1x    frame= 1210 fps= 10 q=-0.0 size=N/A time=00:02:00.90 bitrate=N/A speed=   1x    frame= 1215 fps= 10 q=-0.0 size=N/A time=00:02:01.40 bitrate=N/A speed=   1x    frame= 1221 fps= 10 q=-0.0 size=N/A time=00:02:02.00 bitrate=N/A speed=   1x    frame= 1226 fps= 10 q=-0.0 size=N/A time=00:02:02.50 bitrate=N/A speed=   1x    frame= 1232 fps= 10 q=-0.0 size=N/A time=00:02:03.10 bitrate=N/A speed=   1x    frame= 1238 fps= 10 q=-0.0 size=N/A time=00:02:03.70 bitrate=N/A speed=   1x    frame= 1244 fps= 10 q=-0.0 size=N/A time=00:02:04.30 bitrate=N/A speed=   1x    frame= 1249 fps= 10 q=-0.0 size=N/A time=00:02:04.80 bitrate=N/A speed=   1x    frame= 1255 fps= 10 q=-0.0 size=N/A time=00:02:05.40 bitrate=N/A speed=   1x    frame= 1260 fps= 10 q=-0.0 size=N/A time=00:02:05.90 bitrate=N/A speed=   1x    [hls @ 0x5bfe41e2f580] Opening '/home/user/vnc-hls/hls/lane4/segment_20250603-130943.ts' for writing
[hls @ 0x5bfe41e2f580] Opening '/home/user/vnc-hls/hls/lane4/stream.m3u8.tmp' for writing
frame= 1266 fps= 10 q=-0.0 size=N/A time=00:02:06.50 bitrate=N/A speed=   1x    frame= 1272 fps= 10 q=-0.0 size=N/A time=00:02:07.10 bitrate=N/A speed=   1x    frame= 1277 fps= 10 q=-0.0 size=N/A time=00:02:07.60 bitrate=N/A speed=   1x    frame= 1282 fps= 10 q=-0.0 size=N/A time=00:02:08.10 bitrate=N/A speed=   1x    frame= 1287 fps= 10 q=-0.0 size=N/A time=00:02:08.60 bitrate=N/A speed=   1x    [hls @ 0x5bfe41e2f580] Opening '/home/user/vnc-hls/hls/lane4/segment_20250603-130949.ts' for writing
[hls @ 0x5bfe41e2f580] Opening '/home/user/vnc-hls/hls/lane4/stream.m3u8.tmp' for writing
frame= 1293 fps= 10 q=-0.0 size=N/A time=00:02:09.20 bitrate=N/A speed=   1x    frame= 1299 fps= 10 q=-0.0 size=N/A time=00:02:09.80 bitrate=N/A speed=   1x    frame= 1304 fps= 10 q=-0.0 size=N/A time=00:02:10.30 bitrate=N/A speed=   1x    frame= 1310 fps= 10 q=-0.0 size=N/A time=00:02:10.90 bitrate=N/A speed=   1x    frame= 1316 fps= 10 q=-0.0 size=N/A time=00:02:11.50 bitrate=N/A speed=   1x    [hls @ 0x5bfe41e2f580] Opening '/home/user/vnc-hls/hls/lane4/segment_20250603-130952.ts' for writing
[hls @ 0x5bfe41e2f580] Opening '/home/user/vnc-hls/hls/lane4/stream.m3u8.tmp' for writing
frame= 1322 fps= 10 q=-0.0 size=N/A time=00:02:12.10 bitrate=N/A speed=   1x    frame= 1327 fps= 10 q=-0.0 size=N/A time=00:02:12.60 bitrate=N/A speed=   1x    frame= 1333 fps= 10 q=-0.0 size=N/A time=00:02:13.20 bitrate=N/A speed=   1x    frame= 1338 fps= 10 q=-0.0 size=N/A time=00:02:13.70 bitrate=N/A speed=   1x    frame= 1343 fps= 10 q=-0.0 size=N/A time=00:02:14.20 bitrate=N/A speed=   1x    frame= 1348 fps= 10 q=-0.0 size=N/A time=00:02:14.70 bitrate=N/A speed=   1x    frame= 1354 fps= 10 q=-0.0 size=N/A time=00:02:15.30 bitrate=N/A speed=   1x    frame= 1359 fps= 10 q=-0.0 size=N/A time=00:02:15.80 bitrate=N/A speed=   1x    frame= 1365 fps= 10 q=-0.0 size=N/A time=00:02:16.40 bitrate=N/A speed=   1x    frame= 1371 fps= 10 q=-0.0 size=N/A time=00:02:17.00 bitrate=N/A speed=   1x    frame= 1377 fps= 10 q=-0.0 size=N/A time=00:02:17.60 bitrate=N/A speed=   1x    [hls @ 0x5bfe41e2f580] Opening '/home/user/vnc-hls/hls/lane4/segment_20250603-130955.ts' for writing
[hls @ 0x5bfe41e2f580] Opening '/home/user/vnc-hls/hls/lane4/stream.m3u8.tmp' for writing
frame= 1382 fps= 10 q=-0.0 size=N/A time=00:02:18.10 bitrate=N/A speed=   1x    frame= 1388 fps= 10 q=-0.0 size=N/A time=00:02:18.70 bitrate=N/A speed=   1x    frame= 1393 fps= 10 q=-0.0 size=N/A time=00:02:19.20 bitrate=N/A speed=   1x    frame= 1399 fps= 10 q=-0.0 size=N/A time=00:02:19.80 bitrate=N/A speed=   1x    frame= 1404 fps= 10 q=-0.0 size=N/A time=00:02:20.30 bitrate=N/A speed=   1x    frame= 1409 fps= 10 q=-0.0 size=N/A time=00:02:20.80 bitrate=N/A speed=   1x    [hls @ 0x5bfe41e2f580] Opening '/home/user/vnc-hls/hls/lane4/segment_20250603-131001.ts' for writing
[hls @ 0x5bfe41e2f580] Opening '/home/user/vnc-hls/hls/lane4/stream.m3u8.tmp' for writing
frame= 1415 fps= 10 q=-0.0 size=N/A time=00:02:21.40 bitrate=N/A speed=   1x    frame= 1421 fps= 10 q=-0.0 size=N/A time=00:02:22.00 bitrate=N/A speed=   1x    frame= 1427 fps= 10 q=-0.0 size=N/A time=00:02:22.60 bitrate=N/A speed=   1x    frame= 1433 fps= 10 q=-0.0 size=N/A time=00:02:23.20 bitrate=N/A speed=   1x    frame= 1438 fps= 10 q=-0.0 size=N/A time=00:02:23.70 bitrate=N/A speed=   1x    [hls @ 0x5bfe41e2f580] Opening '/home/user/vnc-hls/hls/lane4/segment_20250603-131004.ts' for writing
[hls @ 0x5bfe41e2f580] Opening '/home/user/vnc-hls/hls/lane4/stream.m3u8.tmp' for writing
frame= 1444 fps= 10 q=-0.0 size=N/A time=00:02:24.30 bitrate=N/A speed=   1x    frame= 1450 fps= 10 q=-0.0 size=N/A time=00:02:24.90 bitrate=N/A speed=   1x    frame= 1455 fps= 10 q=-0.0 size=N/A time=00:02:25.40 bitrate=N/A speed=   1x    frame= 1461 fps= 10 q=-0.0 size=N/A time=00:02:26.00 bitrate=N/A speed=   1x    frame= 1467 fps= 10 q=-0.0 size=N/A time=00:02:26.60 bitrate=N/A speed=   1x    frame= 1473 fps= 10 q=-0.0 size=N/A time=00:02:27.20 bitrate=N/A speed=   1x    frame= 1478 fps= 10 q=-0.0 size=N/A time=00:02:27.70 bitrate=N/A speed=   1x    frame= 1483 fps= 10 q=-0.0 size=N/A time=00:02:28.20 bitrate=N/A speed=   1x    frame= 1489 fps= 10 q=-0.0 size=N/A time=00:02:28.80 bitrate=N/A speed=   1x    frame= 1495 fps= 10 q=-0.0 size=N/A time=00:02:29.40 bitrate=N/A speed=   1x    frame= 1500 fps= 10 q=-0.0 size=N/A time=00:02:29.90 bitrate=N/A speed=   1x    [hls @ 0x5bfe41e2f580] Opening '/home/user/vnc-hls/hls/lane4/segment_20250603-131007.ts' for writing
[hls @ 0x5bfe41e2f580] Opening '/home/user/vnc-hls/hls/lane4/stream.m3u8.tmp' for writing
frame= 1506 fps= 10 q=-0.0 size=N/A time=00:02:30.50 bitrate=N/A speed=   1x    frame= 1511 fps= 10 q=-0.0 size=N/A time=00:02:31.00 bitrate=N/A speed=   1x    frame= 1517 fps= 10 q=-0.0 size=N/A time=00:02:31.60 bitrate=N/A speed=   1x    frame= 1522 fps= 10 q=-0.0 size=N/A time=00:02:32.10 bitrate=N/A speed=   1x    frame= 1527 fps= 10 q=-0.0 size=N/A time=00:02:32.60 bitrate=N/A speed=   1x    [hls @ 0x5bfe41e2f580] Opening '/home/user/vnc-hls/hls/lane4/segment_20250603-131013.ts' for writing
[hls @ 0x5bfe41e2f580] Opening '/home/user/vnc-hls/hls/lane4/stream.m3u8.tmp' for writing
frame= 1533 fps= 10 q=-0.0 size=N/A time=00:02:33.20 bitrate=N/A speed=   1x    frame= 1538 fps= 10 q=-0.0 size=N/A time=00:02:33.70 bitrate=N/A speed=   1x    frame= 1544 fps= 10 q=-0.0 size=N/A time=00:02:34.30 bitrate=N/A speed=   1x    frame= 1550 fps= 10 q=-0.0 size=N/A time=00:02:34.90 bitrate=N/A speed=   1x    frame= 1556 fps= 10 q=-0.0 size=N/A time=00:02:35.50 bitrate=N/A speed=   1x    [hls @ 0x5bfe41e2f580] Opening '/home/user/vnc-hls/hls/lane4/segment_20250603-131016.ts' for writing
[hls @ 0x5bfe41e2f580] Opening '/home/user/vnc-hls/hls/lane4/stream.m3u8.tmp' for writing
frame= 1562 fps= 10 q=-0.0 size=N/A time=00:02:36.10 bitrate=N/A speed=   1x    frame= 1567 fps= 10 q=-0.0 size=N/A time=00:02:36.60 bitrate=N/A speed=   1x    frame= 1573 fps= 10 q=-0.0 size=N/A time=00:02:37.20 bitrate=N/A speed=   1x    frame= 1579 fps= 10 q=-0.0 size=N/A time=00:02:37.80 bitrate=N/A speed=   1x    frame= 1584 fps= 10 q=-0.0 size=N/A time=00:02:38.30 bitrate=N/A speed=   1x    frame= 1589 fps= 10 q=-0.0 size=N/A time=00:02:38.80 bitrate=N/A speed=   1x    frame= 1595 fps= 10 q=-0.0 size=N/A time=00:02:39.40 bitrate=N/A speed=   1x    frame= 1600 fps= 10 q=-0.0 size=N/A time=00:02:39.90 bitrate=N/A speed=   1x    frame= 1606 fps= 10 q=-0.0 size=N/A time=00:02:40.50 bitrate=N/A speed=   1x    frame= 1612 fps= 10 q=-0.0 size=N/A time=00:02:41.10 bitrate=N/A speed=   1x    frame= 1618 fps= 10 q=-0.0 size=N/A time=00:02:41.70 bitrate=N/A speed=   1x    [hls @ 0x5bfe41e2f580] Opening '/home/user/vnc-hls/hls/lane4/segment_20250603-131019.ts' for writing
[hls @ 0x5bfe41e2f580] Opening '/home/user/vnc-hls/hls/lane4/stream.m3u8.tmp' for writing
frame= 1623 fps= 10 q=-0.0 size=N/A time=00:02:42.20 bitrate=N/A speed=   1x    frame= 1629 fps= 10 q=-0.0 size=N/A time=00:02:42.80 bitrate=N/A speed=   1x    frame= 1635 fps= 10 q=-0.0 size=N/A time=00:02:43.40 bitrate=N/A speed=   1x    frame= 1641 fps= 10 q=-0.0 size=N/A time=00:02:44.00 bitrate=N/A speed=   1x    frame= 1647 fps= 10 q=-0.0 size=N/A time=00:02:44.60 bitrate=N/A speed=   1x    [hls @ 0x5bfe41e2f580] Opening '/home/user/vnc-hls/hls/lane4/segment_20250603-131025.ts' for writing
[hls @ 0x5bfe41e2f580] Opening '/home/user/vnc-hls/hls/lane4/stream.m3u8.tmp' for writing
frame= 1653 fps= 10 q=-0.0 size=N/A time=00:02:45.20 bitrate=N/A speed=   1x    frame= 1659 fps= 10 q=-0.0 size=N/A time=00:02:45.80 bitrate=N/A speed=   1x    frame= 1665 fps= 10 q=-0.0 size=N/A time=00:02:46.40 bitrate=N/A speed=   1x    frame= 1670 fps= 10 q=-0.0 size=N/A time=00:02:46.90 bitrate=N/A speed=   1x    frame= 1675 fps= 10 q=-0.0 size=N/A time=00:02:47.40 bitrate=N/A speed=   1x    [hls @ 0x5bfe41e2f580] Opening '/home/user/vnc-hls/hls/lane4/segment_20250603-131028.ts' for writing
[hls @ 0x5bfe41e2f580] Opening '/home/user/vnc-hls/hls/lane4/stream.m3u8.tmp' for writing
frame= 1681 fps= 10 q=-0.0 size=N/A time=00:02:48.00 bitrate=N/A speed=   1x    frame= 1686 fps= 10 q=-0.0 size=N/A time=00:02:48.50 bitrate=N/A speed=   1x    frame= 1692 fps= 10 q=-0.0 size=N/A time=00:02:49.10 bitrate=N/A speed=   1x    frame= 1697 fps= 10 q=-0.0 size=N/A time=00:02:49.60 bitrate=N/A speed=   1x    frame= 1703 fps= 10 q=-0.0 size=N/A time=00:02:50.20 bitrate=N/A speed=   1x    frame= 1709 fps= 10 q=-0.0 size=N/A time=00:02:50.80 bitrate=N/A speed=   1x    frame= 1715 fps= 10 q=-0.0 size=N/A time=00:02:51.40 bitrate=N/A speed=   1x    frame= 1720 fps= 10 q=-0.0 size=N/A time=00:02:51.90 bitrate=N/A speed=   1x    frame= 1726 fps= 10 q=-0.0 size=N/A time=00:02:52.50 bitrate=N/A speed=   1x    frame= 1731 fps= 10 q=-0.0 size=N/A time=00:02:53.00 bitrate=N/A speed=   1x    frame= 1737 fps= 10 q=-0.0 size=N/A time=00:02:53.60 bitrate=N/A speed=   1x    [hls @ 0x5bfe41e2f580] Opening '/home/user/vnc-hls/hls/lane4/segment_20250603-131031.ts' for writing
[hls @ 0x5bfe41e2f580] Opening '/home/user/vnc-hls/hls/lane4/stream.m3u8.tmp' for writing
frame= 1743 fps= 10 q=-0.0 size=N/A time=00:02:54.10 bitrate=N/A speed=   1x    frame= 1747 fps= 10 q=-0.0 size=N/A time=00:02:54.60 bitrate=N/A speed=   1x    frame= 1753 fps= 10 q=-0.0 size=N/A time=00:02:55.20 bitrate=N/A speed=   1x    frame= 1759 fps= 10 q=-0.0 size=N/A time=00:02:55.80 bitrate=N/A speed=   1x    frame= 1764 fps= 10 q=-0.0 size=N/A time=00:02:56.30 bitrate=N/A speed=   1x    frame= 1770 fps= 10 q=-0.0 size=N/A time=00:02:56.90 bitrate=N/A speed=   1x    [hls @ 0x5bfe41e2f580] Opening '/home/user/vnc-hls/hls/lane4/segment_20250603-131037.ts' for writing
[hls @ 0x5bfe41e2f580] Opening '/home/user/vnc-hls/hls/lane4/stream.m3u8.tmp' for writing
frame= 1776 fps= 10 q=-0.0 size=N/A time=00:02:57.50 bitrate=N/A speed=   1x    frame= 1781 fps= 10 q=-0.0 size=N/A time=00:02:58.00 bitrate=N/A speed=   1x    frame= 1787 fps= 10 q=-0.0 size=N/A time=00:02:58.60 bitrate=N/A speed=   1x    frame= 1792 fps= 10 q=-0.0 size=N/A time=00:02:59.10 bitrate=N/A speed=   1x    frame= 1798 fps= 10 q=-0.0 size=N/A time=00:02:59.70 bitrate=N/A speed=   1x    [hls @ 0x5bfe41e2f580] Opening '/home/user/vnc-hls/hls/lane4/segment_20250603-131040.ts' for writing
[hls @ 0x5bfe41e2f580] Opening '/home/user/vnc-hls/hls/lane4/stream.m3u8.tmp' for writing
frame= 1803 fps= 10 q=-0.0 size=N/A time=00:03:00.20 bitrate=N/A speed=   1x    frame= 1808 fps= 10 q=-0.0 size=N/A time=00:03:00.70 bitrate=N/A speed=   1x    frame= 1814 fps= 10 q=-0.0 size=N/A time=00:03:01.30 bitrate=N/A speed=   1x    frame= 1819 fps= 10 q=-0.0 size=N/A time=00:03:01.80 bitrate=N/A speed=   1x    frame= 1825 fps= 10 q=-0.0 size=N/A time=00:03:02.40 bitrate=N/A speed=   1x    frame= 1831 fps= 10 q=-0.0 size=N/A time=00:03:03.00 bitrate=N/A speed=   1x    frame= 1837 fps= 10 q=-0.0 size=N/A time=00:03:03.60 bitrate=N/A speed=   1x    frame= 1842 fps= 10 q=-0.0 size=N/A time=00:03:04.10 bitrate=N/A speed=   1x    frame= 1847 fps= 10 q=-0.0 size=N/A time=00:03:04.60 bitrate=N/A speed=   1x    frame= 1853 fps= 10 q=-0.0 size=N/A time=00:03:05.20 bitrate=N/A speed=   1x    frame= 1858 fps= 10 q=-0.0 size=N/A time=00:03:05.70 bitrate=N/A speed=   1x    [hls @ 0x5bfe41e2f580] Opening '/home/user/vnc-hls/hls/lane4/segment_20250603-131043.ts' for writing
[hls @ 0x5bfe41e2f580] Opening '/home/user/vnc-hls/hls/lane4/stream.m3u8.tmp' for writing
frame= 1864 fps= 10 q=-0.0 size=N/A time=00:03:06.30 bitrate=N/A speed=   1x    frame= 1869 fps= 10 q=-0.0 size=N/A time=00:03:06.80 bitrate=N/A speed=   1x    frame= 1875 fps= 10 q=-0.0 size=N/A time=00:03:07.40 bitrate=N/A speed=   1x    frame= 1881 fps= 10 q=-0.0 size=N/A time=00:03:08.00 bitrate=N/A speed=   1x    frame= 1886 fps= 10 q=-0.0 size=N/A time=00:03:08.50 bitrate=N/A speed=   1x    [hls @ 0x5bfe41e2f580] Opening '/home/user/vnc-hls/hls/lane4/segment_20250603-131049.ts' for writing
[hls @ 0x5bfe41e2f580] Opening '/home/user/vnc-hls/hls/lane4/stream.m3u8.tmp' for writing
frame= 1891 fps= 10 q=-0.0 size=N/A time=00:03:09.00 bitrate=N/A speed=   1x    frame= 1896 fps= 10 q=-0.0 size=N/A time=00:03:09.50 bitrate=N/A speed=   1x    frame= 1902 fps= 10 q=-0.0 size=N/A time=00:03:10.10 bitrate=N/A speed=   1x    frame= 1908 fps= 10 q=-0.0 size=N/A time=00:03:10.70 bitrate=N/A speed=   1x    frame= 1913 fps= 10 q=-0.0 size=N/A time=00:03:11.20 bitrate=N/A speed=   1x    frame= 1919 fps= 10 q=-0.0 size=N/A time=00:03:11.80 bitrate=N/A speed=   1x    [hls @ 0x5bfe41e2f580] Opening '/home/user/vnc-hls/hls/lane4/segment_20250603-131052.ts' for writing
[hls @ 0x5bfe41e2f580] Opening '/home/user/vnc-hls/hls/lane4/stream.m3u8.tmp' for writing
frame= 1924 fps= 10 q=-0.0 size=N/A time=00:03:12.30 bitrate=N/A speed=   1x    frame= 1929 fps= 10 q=-0.0 size=N/A time=00:03:12.80 bitrate=N/A speed=   1x    frame= 1935 fps= 10 q=-0.0 size=N/A time=00:03:13.40 bitrate=N/A speed=   1x    frame= 1941 fps= 10 q=-0.0 size=N/A time=00:03:14.00 bitrate=N/A speed=   1x    frame= 1947 fps= 10 q=-0.0 size=N/A time=00:03:14.60 bitrate=N/A speed=   1x    frame= 1953 fps= 10 q=-0.0 size=N/A time=00:03:15.20 bitrate=N/A speed=   1x    frame= 1958 fps= 10 q=-0.0 size=N/A time=00:03:15.70 bitrate=N/A speed=   1x    frame= 1964 fps= 10 q=-0.0 size=N/A time=00:03:16.30 bitrate=N/A speed=   1x    frame= 1970 fps= 10 q=-0.0 size=N/A time=00:03:16.90 bitrate=N/A speed=   1x    frame= 1975 fps= 10 q=-0.0 size=N/A time=00:03:17.40 bitrate=N/A speed=   1x    [hls @ 0x5bfe41e2f580] Opening '/home/user/vnc-hls/hls/lane4/segment_20250603-131055.ts' for writing
[hls @ 0x5bfe41e2f580] Opening '/home/user/vnc-hls/hls/lane4/stream.m3u8.tmp' for writing
frame= 1981 fps= 10 q=-0.0 size=N/A time=00:03:18.00 bitrate=N/A speed=   1x    frame= 1986 fps= 10 q=-0.0 size=N/A time=00:03:18.50 bitrate=N/A speed=   1x    frame= 1991 fps= 10 q=-0.0 size=N/A time=00:03:19.00 bitrate=N/A speed=   1x    frame= 1996 fps= 10 q=-0.0 size=N/A time=00:03:19.50 bitrate=N/A speed=   1x    frame= 2002 fps= 10 q=-0.0 size=N/A time=00:03:20.10 bitrate=N/A speed=   1x    frame= 2007 fps= 10 q=-0.0 size=N/A time=00:03:20.60 bitrate=N/A speed=   1x    [hls @ 0x5bfe41e2f580] Opening '/home/user/vnc-hls/hls/lane4/segment_20250603-131101.ts' for writing
[hls @ 0x5bfe41e2f580] Opening '/home/user/vnc-hls/hls/lane4/stream.m3u8.tmp' for writing
frame= 2012 fps= 10 q=-0.0 size=N/A time=00:03:21.10 bitrate=N/A speed=   1x    frame= 2018 fps= 10 q=-0.0 size=N/A time=00:03:21.70 bitrate=N/A speed=   1x    frame= 2024 fps= 10 q=-0.0 size=N/A time=00:03:22.30 bitrate=N/A speed=   1x    frame= 2030 fps= 10 q=-0.0 size=N/A time=00:03:22.90 bitrate=N/A speed=   1x    frame= 2036 fps= 10 q=-0.0 size=N/A time=00:03:23.50 bitrate=N/A speed=   1x    [hls @ 0x5bfe41e2f580] Opening '/home/user/vnc-hls/hls/lane4/segment_20250603-131104.ts' for writing
[hls @ 0x5bfe41e2f580] Opening '/home/user/vnc-hls/hls/lane4/stream.m3u8.tmp' for writing
frame= 2041 fps= 10 q=-0.0 size=N/A time=00:03:24.00 bitrate=N/A speed=   1x    frame= 2046 fps= 10 q=-0.0 size=N/A time=00:03:24.50 bitrate=N/A speed=   1x    frame= 2052 fps= 10 q=-0.0 size=N/A time=00:03:25.10 bitrate=N/A speed=   1x    frame= 2057 fps= 10 q=-0.0 size=N/A time=00:03:25.60 bitrate=N/A speed=   1x    frame= 2063 fps= 10 q=-0.0 size=N/A time=00:03:26.20 bitrate=N/A speed=   1x    frame= 2068 fps= 10 q=-0.0 size=N/A time=00:03:26.70 bitrate=N/A speed=   1x    frame= 2074 fps= 10 q=-0.0 size=N/A time=00:03:27.30 bitrate=N/A speed=   1x    frame= 2079 fps= 10 q=-0.0 size=N/A time=00:03:27.80 bitrate=N/A speed=   1x    frame= 2085 fps= 10 q=-0.0 size=N/A time=00:03:28.40 bitrate=N/A speed=   1x    frame= 2091 fps= 10 q=-0.0 size=N/A time=00:03:29.00 bitrate=N/A speed=   1x    frame= 2096 fps= 10 q=-0.0 size=N/A time=00:03:29.50 bitrate=N/A speed=   1x    [hls @ 0x5bfe41e2f580] Opening '/home/user/vnc-hls/hls/lane4/segment_20250603-131107.ts' for writing
[hls @ 0x5bfe41e2f580] Opening '/home/user/vnc-hls/hls/lane4/stream.m3u8.tmp' for writing
frame= 2101 fps= 10 q=-0.0 size=N/A time=00:03:30.00 bitrate=N/A speed=   1x    frame= 2107 fps= 10 q=-0.0 size=N/A time=00:03:30.60 bitrate=N/A speed=   1x    frame= 2113 fps= 10 q=-0.0 size=N/A time=00:03:31.20 bitrate=N/A speed=   1x    frame= 2119 fps= 10 q=-0.0 size=N/A time=00:03:31.80 bitrate=N/A speed=   1x    frame= 2124 fps= 10 q=-0.0 size=N/A time=00:03:32.30 bitrate=N/A speed=   1x    frame= 2130 fps= 10 q=-0.0 size=N/A time=00:03:32.90 bitrate=N/A speed=   1x    [hls @ 0x5bfe41e2f580] Opening '/home/user/vnc-hls/hls/lane4/segment_20250603-131113.ts' for writing
[hls @ 0x5bfe41e2f580] Opening '/home/user/vnc-hls/hls/lane4/stream.m3u8.tmp' for writing
frame= 2136 fps= 10 q=-0.0 size=N/A time=00:03:33.50 bitrate=N/A speed=   1x    frame= 2141 fps= 10 q=-0.0 size=N/A time=00:03:34.00 bitrate=N/A speed=   1x    frame= 2147 fps= 10 q=-0.0 size=N/A time=00:03:34.60 bitrate=N/A speed=   1x    frame= 2153 fps= 10 q=-0.0 size=N/A time=00:03:35.20 bitrate=N/A speed=   1x    frame= 2159 fps= 10 q=-0.0 size=N/A time=00:03:35.80 bitrate=N/A speed=   1x    [hls @ 0x5bfe41e2f580] Opening '/home/user/vnc-hls/hls/lane4/segment_20250603-131116.ts' for writing
[hls @ 0x5bfe41e2f580] Opening '/home/user/vnc-hls/hls/lane4/stream.m3u8.tmp' for writing
frame= 2165 fps= 10 q=-0.0 size=N/A time=00:03:36.40 bitrate=N/A speed=   1x    frame= 2170 fps= 10 q=-0.0 size=N/A time=00:03:36.90 bitrate=N/A speed=   1x    frame= 2176 fps= 10 q=-0.0 size=N/A time=00:03:37.50 bitrate=N/A speed=   1x    frame= 2182 fps= 10 q=-0.0 size=N/A time=00:03:38.10 bitrate=N/A speed=   1x    frame= 2188 fps= 10 q=-0.0 size=N/A time=00:03:38.70 bitrate=N/A speed=   1x    frame= 2193 fps= 10 q=-0.0 size=N/A time=00:03:39.20 bitrate=N/A speed=   1x    frame= 2199 fps= 10 q=-0.0 size=N/A time=00:03:39.80 bitrate=N/A speed=   1x    frame= 2204 fps= 10 q=-0.0 size=N/A time=00:03:40.30 bitrate=N/A speed=   1x    frame= 2209 fps= 10 q=-0.0 size=N/A time=00:03:40.80 bitrate=N/A speed=   1x    frame= 2215 fps= 10 q=-0.0 size=N/A time=00:03:41.40 bitrate=N/A speed=   1x    frame= 2220 fps= 10 q=-0.0 size=N/A time=00:03:41.90 bitrate=N/A speed=   1x    [hls @ 0x5bfe41e2f580] Opening '/home/user/vnc-hls/hls/lane4/segment_20250603-131119.ts' for writing
[hls @ 0x5bfe41e2f580] Opening '/home/user/vnc-hls/hls/lane4/stream.m3u8.tmp' for writing
frame= 2226 fps= 10 q=-0.0 size=N/A time=00:03:42.50 bitrate=N/A speed=   1x    frame= 2231 fps= 10 q=-0.0 size=N/A time=00:03:43.00 bitrate=N/A speed=   1x    frame= 2237 fps= 10 q=-0.0 size=N/A time=00:03:43.60 bitrate=N/A speed=   1x    frame= 2243 fps= 10 q=-0.0 size=N/A time=00:03:44.20 bitrate=N/A speed=   1x    frame= 2248 fps= 10 q=-0.0 size=N/A time=00:03:44.70 bitrate=N/A speed=   1x    [hls @ 0x5bfe41e2f580] Opening '/home/user/vnc-hls/hls/lane4/segment_20250603-131125.ts' for writing
[hls @ 0x5bfe41e2f580] Opening '/home/user/vnc-hls/hls/lane4/stream.m3u8.tmp' for writing
frame= 2254 fps= 10 q=-0.0 size=N/A time=00:03:45.30 bitrate=N/A speed=   1x    frame= 2259 fps= 10 q=-0.0 size=N/A time=00:03:45.80 bitrate=N/A speed=   1x    frame= 2265 fps= 10 q=-0.0 size=N/A time=00:03:46.40 bitrate=N/A speed=   1x    frame= 2270 fps= 10 q=-0.0 size=N/A time=00:03:46.90 bitrate=N/A speed=   1x    frame= 2276 fps= 10 q=-0.0 size=N/A time=00:03:47.50 bitrate=N/A speed=   1x    [hls @ 0x5bfe41e2f580] Opening '/home/user/vnc-hls/hls/lane4/segment_20250603-131128.ts' for writing
[hls @ 0x5bfe41e2f580] Opening '/home/user/vnc-hls/hls/lane4/stream.m3u8.tmp' for writing
frame= 2282 fps= 10 q=-0.0 size=N/A time=00:03:48.10 bitrate=N/A speed=   1x    frame= 2287 fps= 10 q=-0.0 size=N/A time=00:03:48.60 bitrate=N/A speed=   1x    frame= 2292 fps= 10 q=-0.0 size=N/A time=00:03:49.10 bitrate=N/A speed=   1x    frame= 2298 fps= 10 q=-0.0 size=N/A time=00:03:49.70 bitrate=N/A speed=   1x    frame= 2303 fps= 10 q=-0.0 size=N/A time=00:03:50.20 bitrate=N/A speed=   1x    frame= 2309 fps= 10 q=-0.0 size=N/A time=00:03:50.80 bitrate=N/A speed=   1x    frame= 2315 fps= 10 q=-0.0 size=N/A time=00:03:51.40 bitrate=N/A speed=   1x    frame= 2321 fps= 10 q=-0.0 size=N/A time=00:03:52.00 bitrate=N/A speed=   1x    frame= 2327 fps= 10 q=-0.0 size=N/A time=00:03:52.60 bitrate=N/A speed=   1x    frame= 2332 fps= 10 q=-0.0 size=N/A time=00:03:53.10 bitrate=N/A speed=   1x    frame= 2337 fps= 10 q=-0.0 size=N/A time=00:03:53.60 bitrate=N/A speed=   1x    [hls @ 0x5bfe41e2f580] Opening '/home/user/vnc-hls/hls/lane4/segment_20250603-131131.ts' for writing
[hls @ 0x5bfe41e2f580] Opening '/home/user/vnc-hls/hls/lane4/stream.m3u8.tmp' for writing
frame= 2343 fps= 10 q=-0.0 size=N/A time=00:03:54.20 bitrate=N/A speed=   1x    frame= 2348 fps= 10 q=-0.0 size=N/A time=00:03:54.70 bitrate=N/A speed=   1x    frame= 2354 fps= 10 q=-0.0 size=N/A time=00:03:55.30 bitrate=N/A speed=   1x    frame= 2359 fps= 10 q=-0.0 size=N/A time=00:03:55.80 bitrate=N/A speed=   1x    frame= 2365 fps= 10 q=-0.0 size=N/A time=00:03:56.40 bitrate=N/A speed=   1x    frame= 2370 fps= 10 q=-0.0 size=N/A time=00:03:56.90 bitrate=N/A speed=   1x    [hls @ 0x5bfe41e2f580] Opening '/home/user/vnc-hls/hls/lane4/segment_20250603-131137.ts' for writing
[hls @ 0x5bfe41e2f580] Opening '/home/user/vnc-hls/hls/lane4/stream.m3u8.tmp' for writing
frame= 2376 fps= 10 q=-0.0 size=N/A time=00:03:57.50 bitrate=N/A speed=   1x    frame= 2382 fps= 10 q=-0.0 size=N/A time=00:03:58.10 bitrate=N/A speed=   1x    frame= 2388 fps= 10 q=-0.0 size=N/A time=00:03:58.70 bitrate=N/A speed=   1x    frame= 2394 fps= 10 q=-0.0 size=N/A time=00:03:59.30 bitrate=N/A speed=   1x    frame= 2400 fps= 10 q=-0.0 size=N/A time=00:03:59.90 bitrate=N/A speed=   1x    [hls @ 0x5bfe41e2f580] Opening '/home/user/vnc-hls/hls/lane4/segment_20250603-131140.ts' for writing
[hls @ 0x5bfe41e2f580] Opening '/home/user/vnc-hls/hls/lane4/stream.m3u8.tmp' for writing
frame= 2405 fps= 10 q=-0.0 size=N/A time=00:04:00.40 bitrate=N/A speed=   1x    frame= 2411 fps= 10 q=-0.0 size=N/A time=00:04:01.00 bitrate=N/A speed=   1x    frame= 2416 fps= 10 q=-0.0 size=N/A time=00:04:01.50 bitrate=N/A speed=   1x    frame= 2422 fps= 10 q=-0.0 size=N/A time=00:04:02.10 bitrate=N/A speed=   1x    frame= 2428 fps= 10 q=-0.0 size=N/A time=00:04:02.70 bitrate=N/A speed=   1x    frame= 2434 fps= 10 q=-0.0 size=N/A time=00:04:03.30 bitrate=N/A speed=   1x    frame= 2440 fps= 10 q=-0.0 size=N/A time=00:04:03.90 bitrate=N/A speed=   1x    frame= 2446 fps= 10 q=-0.0 size=N/A time=00:04:04.50 bitrate=N/A speed=   1x    frame= 2452 fps= 10 q=-0.0 size=N/A time=00:04:05.10 bitrate=N/A speed=   1x    frame= 2458 fps= 10 q=-0.0 size=N/A time=00:04:05.70 bitrate=N/A speed=   1x    [hls @ 0x5bfe41e2f580] Opening '/home/user/vnc-hls/hls/lane4/segment_20250603-131143.ts' for writing
[hls @ 0x5bfe41e2f580] Opening '/home/user/vnc-hls/hls/lane4/stream.m3u8.tmp' for writing
frame= 2464 fps= 10 q=-0.0 size=N/A time=00:04:06.30 bitrate=N/A speed=   1x    frame= 2469 fps= 10 q=-0.0 size=N/A time=00:04:06.80 bitrate=N/A speed=   1x    frame= 2475 fps= 10 q=-0.0 size=N/A time=00:04:07.40 bitrate=N/A speed=   1x    frame= 2480 fps= 10 q=-0.0 size=N/A time=00:04:07.90 bitrate=N/A speed=   1x    frame= 2486 fps= 10 q=-0.0 size=N/A time=00:04:08.50 bitrate=N/A speed=   1x    [hls @ 0x5bfe41e2f580] Opening '/home/user/vnc-hls/hls/lane4/segment_20250603-131149.ts' for writing
[hls @ 0x5bfe41e2f580] Opening '/home/user/vnc-hls/hls/lane4/stream.m3u8.tmp' for writing
frame= 2492 fps= 10 q=-0.0 size=N/A time=00:04:09.10 bitrate=N/A speed=   1x    frame= 2498 fps= 10 q=-0.0 size=N/A time=00:04:09.70 bitrate=N/A speed=   1x    frame= 2504 fps= 10 q=-0.0 size=N/A time=00:04:10.30 bitrate=N/A speed=   1x    frame= 2509 fps= 10 q=-0.0 size=N/A time=00:04:10.80 bitrate=N/A speed=   1x    frame= 2515 fps= 10 q=-0.0 size=N/A time=00:04:11.40 bitrate=N/A speed=   1x    frame= 2520 fps= 10 q=-0.0 size=N/A time=00:04:11.90 bitrate=N/A speed=   1x    [hls @ 0x5bfe41e2f580] Opening '/home/user/vnc-hls/hls/lane4/segment_20250603-131152.ts' for writing
[hls @ 0x5bfe41e2f580] Opening '/home/user/vnc-hls/hls/lane4/stream.m3u8.tmp' for writing
frame= 2526 fps= 10 q=-0.0 size=N/A time=00:04:12.50 bitrate=N/A speed=   1x    frame= 2532 fps= 10 q=-0.0 size=N/A time=00:04:13.10 bitrate=N/A speed=   1x    frame= 2538 fps= 10 q=-0.0 size=N/A time=00:04:13.70 bitrate=N/A speed=   1x    frame= 2543 fps= 10 q=-0.0 size=N/A time=00:04:14.20 bitrate=N/A speed=   1x    frame= 2549 fps= 10 q=-0.0 size=N/A time=00:04:14.80 bitrate=N/A speed=   1x    frame= 2555 fps= 10 q=-0.0 size=N/A time=00:04:15.40 bitrate=N/A speed=   1x    frame= 2561 fps= 10 q=-0.0 size=N/A time=00:04:16.00 bitrate=N/A speed=   1x    frame= 2567 fps= 10 q=-0.0 size=N/A time=00:04:16.60 bitrate=N/A speed=   1x    frame= 2572 fps= 10 q=-0.0 size=N/A time=00:04:17.10 bitrate=N/A speed=   1x    frame= 2578 fps= 10 q=-0.0 size=N/A time=00:04:17.70 bitrate=N/A speed=   1x    [hls @ 0x5bfe41e2f580] Opening '/home/user/vnc-hls/hls/lane4/segment_20250603-131155.ts' for writing
[hls @ 0x5bfe41e2f580] Opening '/home/user/vnc-hls/hls/lane4/stream.m3u8.tmp' for writing
frame= 2584 fps= 10 q=-0.0 size=N/A time=00:04:18.30 bitrate=N/A speed=   1x    frame= 2590 fps= 10 q=-0.0 size=N/A time=00:04:18.90 bitrate=N/A speed=   1x    frame= 2595 fps= 10 q=-0.0 size=N/A time=00:04:19.40 bitrate=N/A speed=   1x    frame= 2601 fps= 10 q=-0.0 size=N/A time=00:04:20.00 bitrate=N/A speed=   1x    frame= 2607 fps= 10 q=-0.0 size=N/A time=00:04:20.60 bitrate=N/A speed=   1x    [hls @ 0x5bfe41e2f580] Opening '/home/user/vnc-hls/hls/lane4/segment_20250603-131201.ts' for writing
[hls @ 0x5bfe41e2f580] Opening '/home/user/vnc-hls/hls/lane4/stream.m3u8.tmp' for writing
frame= 2612 fps= 10 q=-0.0 size=N/A time=00:04:21.10 bitrate=N/A speed=   1x    frame= 2618 fps= 10 q=-0.0 size=N/A time=00:04:21.70 bitrate=N/A speed=   1x    frame= 2624 fps= 10 q=-0.0 size=N/A time=00:04:22.30 bitrate=N/A speed=   1x    frame= 2629 fps= 10 q=-0.0 size=N/A time=00:04:22.80 bitrate=N/A speed=   1x    frame= 2635 fps= 10 q=-0.0 size=N/A time=00:04:23.40 bitrate=N/A speed=   1x    [hls @ 0x5bfe41e2f580] Opening '/home/user/vnc-hls/hls/lane4/segment_20250603-131204.ts' for writing
[hls @ 0x5bfe41e2f580] Opening '/home/user/vnc-hls/hls/lane4/stream.m3u8.tmp' for writing
frame= 2641 fps= 10 q=-0.0 size=N/A time=00:04:24.00 bitrate=N/A speed=   1x    frame= 2646 fps= 10 q=-0.0 size=N/A time=00:04:24.50 bitrate=N/A speed=   1x    frame= 2652 fps= 10 q=-0.0 size=N/A time=00:04:25.10 bitrate=N/A speed=   1x    frame= 2658 fps= 10 q=-0.0 size=N/A time=00:04:25.70 bitrate=N/A speed=   1x    frame= 2664 fps= 10 q=-0.0 size=N/A time=00:04:26.30 bitrate=N/A speed=   1x    frame= 2669 fps= 10 q=-0.0 size=N/A time=00:04:26.80 bitrate=N/A speed=   1x    frame= 2675 fps= 10 q=-0.0 size=N/A time=00:04:27.40 bitrate=N/A speed=   1x    frame= 2681 fps= 10 q=-0.0 size=N/A time=00:04:28.00 bitrate=N/A speed=   1x    frame= 2687 fps= 10 q=-0.0 size=N/A time=00:04:28.60 bitrate=N/A speed=   1x    frame= 2692 fps= 10 q=-0.0 size=N/A time=00:04:29.10 bitrate=N/A speed=   1x    frame= 2698 fps= 10 q=-0.0 size=N/A time=00:04:29.70 bitrate=N/A speed=   1x    [hls @ 0x5bfe41e2f580] Opening '/home/user/vnc-hls/hls/lane4/segment_20250603-131207.ts' for writing
[hls @ 0x5bfe41e2f580] Opening '/home/user/vnc-hls/hls/lane4/stream.m3u8.tmp' for writing
frame= 2703 fps= 10 q=-0.0 size=N/A time=00:04:30.20 bitrate=N/A speed=   1x    frame= 2708 fps= 10 q=-0.0 size=N/A time=00:04:30.70 bitrate=N/A speed=   1x    frame= 2714 fps= 10 q=-0.0 size=N/A time=00:04:31.30 bitrate=N/A speed=   1x    frame= 2720 fps= 10 q=-0.0 size=N/A time=00:04:31.90 bitrate=N/A speed=   1x    frame= 2725 fps= 10 q=-0.0 size=N/A time=00:04:32.40 bitrate=N/A speed=   1x    [hls @ 0x5bfe41e2f580] Opening '/home/user/vnc-hls/hls/lane4/segment_20250603-131213.ts' for writing
[hls @ 0x5bfe41e2f580] Opening '/home/user/vnc-hls/hls/lane4/stream.m3u8.tmp' for writing
frame= 2731 fps= 10 q=-0.0 size=N/A time=00:04:33.00 bitrate=N/A speed=   1x    frame= 2736 fps= 10 q=-0.0 size=N/A time=00:04:33.50 bitrate=N/A speed=   1x    frame= 2741 fps= 10 q=-0.0 size=N/A time=00:04:34.00 bitrate=N/A speed=   1x    frame= 2747 fps= 10 q=-0.0 size=N/A time=00:04:34.60 bitrate=N/A speed=   1x    frame= 2753 fps= 10 q=-0.0 size=N/A time=00:04:35.20 bitrate=N/A speed=   1x    frame= 2759 fps= 10 q=-0.0 size=N/A time=00:04:35.80 bitrate=N/A speed=   1x    [hls @ 0x5bfe41e2f580] Opening '/home/user/vnc-hls/hls/lane4/segment_20250603-131216.ts' for writing
[hls @ 0x5bfe41e2f580] Opening '/home/user/vnc-hls/hls/lane4/stream.m3u8.tmp' for writing
frame= 2765 fps= 10 q=-0.0 size=N/A time=00:04:36.40 bitrate=N/A speed=   1x    frame= 2771 fps= 10 q=-0.0 size=N/A time=00:04:37.00 bitrate=N/A speed=   1x    frame= 2777 fps= 10 q=-0.0 size=N/A time=00:04:37.60 bitrate=N/A speed=   1x    frame= 2783 fps= 10 q=-0.0 size=N/A time=00:04:38.20 bitrate=N/A speed=   1x    frame= 2788 fps= 10 q=-0.0 size=N/A time=00:04:38.70 bitrate=N/A speed=   1x    frame= 2794 fps= 10 q=-0.0 size=N/A time=00:04:39.30 bitrate=N/A speed=   1x    frame= 2799 fps= 10 q=-0.0 size=N/A time=00:04:39.80 bitrate=N/A speed=   1x    frame= 2805 fps= 10 q=-0.0 size=N/A time=00:04:40.40 bitrate=N/A speed=   1x    frame= 2811 fps= 10 q=-0.0 size=N/A time=00:04:41.00 bitrate=N/A speed=   1x    frame= 2817 fps= 10 q=-0.0 size=N/A time=00:04:41.60 bitrate=N/A speed=   1x    [hls @ 0x5bfe41e2f580] Opening '/home/user/vnc-hls/hls/lane4/segment_20250603-131219.ts' for writing
[hls @ 0x5bfe41e2f580] Opening '/home/user/vnc-hls/hls/lane4/stream.m3u8.tmp' for writing
frame= 2822 fps= 10 q=-0.0 size=N/A time=00:04:42.10 bitrate=N/A speed=   1x    frame= 2828 fps= 10 q=-0.0 size=N/A time=00:04:42.70 bitrate=N/A speed=   1x    frame= 2833 fps= 10 q=-0.0 size=N/A time=00:04:43.20 bitrate=N/A speed=   1x    frame= 2838 fps= 10 q=-0.0 size=N/A time=00:04:43.70 bitrate=N/A speed=   1x    frame= 2844 fps= 10 q=-0.0 size=N/A time=00:04:44.30 bitrate=N/A speed=   1x    frame= 2850 fps= 10 q=-0.0 size=N/A time=00:04:44.90 bitrate=N/A speed=   1x    [hls @ 0x5bfe41e2f580] Opening '/home/user/vnc-hls/hls/lane4/segment_20250603-131225.ts' for writing
[hls @ 0x5bfe41e2f580] Opening '/home/user/vnc-hls/hls/lane4/stream.m3u8.tmp' for writing
frame= 2856 fps= 10 q=-0.0 size=N/A time=00:04:45.50 bitrate=N/A speed=   1x    frame= 2861 fps= 10 q=-0.0 size=N/A time=00:04:46.00 bitrate=N/A speed=   1x    frame= 2867 fps= 10 q=-0.0 size=N/A time=00:04:46.60 bitrate=N/A speed=   1x    frame= 2873 fps= 10 q=-0.0 size=N/A time=00:04:47.20 bitrate=N/A speed=   1x    frame= 2878 fps= 10 q=-0.0 size=N/A time=00:04:47.70 bitrate=N/A speed=   1x    [hls @ 0x5bfe41e2f580] Opening '/home/user/vnc-hls/hls/lane4/segment_20250603-131228.ts' for writing
[hls @ 0x5bfe41e2f580] Opening '/home/user/vnc-hls/hls/lane4/stream.m3u8.tmp' for writing
frame= 2883 fps= 10 q=-0.0 size=N/A time=00:04:48.20 bitrate=N/A speed=   1x    frame= 2889 fps= 10 q=-0.0 size=N/A time=00:04:48.80 bitrate=N/A speed=   1x    frame= 2894 fps= 10 q=-0.0 size=N/A time=00:04:49.30 bitrate=N/A speed=   1x    frame= 2900 fps= 10 q=-0.0 size=N/A time=00:04:49.90 bitrate=N/A speed=   1x    frame= 2905 fps= 10 q=-0.0 size=N/A time=00:04:50.40 bitrate=N/A speed=   1x    frame= 2911 fps= 10 q=-0.0 size=N/A time=00:04:51.00 bitrate=N/A speed=   1x    frame= 2916 fps= 10 q=-0.0 size=N/A time=00:04:51.50 bitrate=N/A speed=   1x    frame= 2921 fps= 10 q=-0.0 size=N/A time=00:04:52.00 bitrate=N/A speed=   1x    frame= 2927 fps= 10 q=-0.0 size=N/A time=00:04:52.60 bitrate=N/A speed=   1x    frame= 2933 fps= 10 q=-0.0 size=N/A time=00:04:53.20 bitrate=N/A speed=   1x    frame= 2938 fps= 10 q=-0.0 size=N/A time=00:04:53.70 bitrate=N/A speed=   1x    [hls @ 0x5bfe41e2f580] Opening '/home/user/vnc-hls/hls/lane4/segment_20250603-131231.ts' for writing
[hls @ 0x5bfe41e2f580] Opening '/home/user/vnc-hls/hls/lane4/stream.m3u8.tmp' for writing
frame= 2944 fps= 10 q=-0.0 size=N/A time=00:04:54.30 bitrate=N/A speed=   1x    frame= 2950 fps= 10 q=-0.0 size=N/A time=00:04:54.90 bitrate=N/A speed=   1x    frame= 2955 fps= 10 q=-0.0 size=N/A time=00:04:55.40 bitrate=N/A speed=   1x    frame= 2960 fps= 10 q=-0.0 size=N/A time=00:04:55.90 bitrate=N/A speed=   1x    frame= 2966 fps= 10 q=-0.0 size=N/A time=00:04:56.50 bitrate=N/A speed=   1x    [hls @ 0x5bfe41e2f580] Opening '/home/user/vnc-hls/hls/lane4/segment_20250603-131237.ts' for writing
[hls @ 0x5bfe41e2f580] Opening '/home/user/vnc-hls/hls/lane4/stream.m3u8.tmp' for writing
frame= 2971 fps= 10 q=-0.0 size=N/A time=00:04:57.00 bitrate=N/A speed=   1x    frame= 2977 fps= 10 q=-0.0 size=N/A time=00:04:57.60 bitrate=N/A speed=   1x    frame= 2983 fps= 10 q=-0.0 size=N/A time=00:04:58.20 bitrate=N/A speed=   1x    frame= 2989 fps= 10 q=-0.0 size=N/A time=00:04:58.80 bitrate=N/A speed=   1x    frame= 2995 fps= 10 q=-0.0 size=N/A time=00:04:59.40 bitrate=N/A speed=   1x    frame= 3000 fps= 10 q=-0.0 size=N/A time=00:04:59.90 bitrate=N/A speed=   1x    [hls @ 0x5bfe41e2f580] Opening '/home/user/vnc-hls/hls/lane4/segment_20250603-131240.ts' for writing
[hls @ 0x5bfe41e2f580] Opening '/home/user/vnc-hls/hls/lane4/stream.m3u8.tmp' for writing
frame= 3006 fps= 10 q=-0.0 size=N/A time=00:05:00.50 bitrate=N/A speed=   1x    frame= 3012 fps= 10 q=-0.0 size=N/A time=00:05:01.10 bitrate=N/A speed=   1x    frame= 3018 fps= 10 q=-0.0 size=N/A time=00:05:01.70 bitrate=N/A speed=   1x    frame= 3024 fps= 10 q=-0.0 size=N/A time=00:05:02.30 bitrate=N/A speed=   1x    frame= 3029 fps= 10 q=-0.0 size=N/A time=00:05:02.80 bitrate=N/A speed=   1x    frame= 3035 fps= 10 q=-0.0 size=N/A time=00:05:03.40 bitrate=N/A speed=   1x    frame= 3040 fps= 10 q=-0.0 size=N/A time=00:05:03.90 bitrate=N/A speed=   1x    frame= 3045 fps= 10 q=-0.0 size=N/A time=00:05:04.40 bitrate=N/A speed=   1x    frame= 3051 fps= 10 q=-0.0 size=N/A time=00:05:05.00 bitrate=N/A speed=   1x    frame= 3057 fps= 10 q=-0.0 size=N/A time=00:05:05.60 bitrate=N/A speed=   1x    [hls @ 0x5bfe41e2f580] Opening '/home/user/vnc-hls/hls/lane4/segment_20250603-131243.ts' for writing
[hls @ 0x5bfe41e2f580] Opening '/home/user/vnc-hls/hls/lane4/stream.m3u8.tmp' for writing
frame= 3062 fps= 10 q=-0.0 size=N/A time=00:05:06.10 bitrate=N/A speed=   1x    frame= 3068 fps= 10 q=-0.0 size=N/A time=00:05:06.70 bitrate=N/A speed=   1x    frame= 3074 fps= 10 q=-0.0 size=N/A time=00:05:07.30 bitrate=N/A speed=   1x    frame= 3080 fps= 10 q=-0.0 size=N/A time=00:05:07.90 bitrate=N/A speed=   1x    frame= 3086 fps= 10 q=-0.0 size=N/A time=00:05:08.50 bitrate=N/A speed=   1x    [hls @ 0x5bfe41e2f580] Opening '/home/user/vnc-hls/hls/lane4/segment_20250603-131249.ts' for writing
[hls @ 0x5bfe41e2f580] Opening '/home/user/vnc-hls/hls/lane4/stream.m3u8.tmp' for writing
frame= 3091 fps= 10 q=-0.0 size=N/A time=00:05:09.00 bitrate=N/A speed=   1x    frame= 3096 fps= 10 q=-0.0 size=N/A time=00:05:09.50 bitrate=N/A speed=   1x    frame= 3101 fps= 10 q=-0.0 size=N/A time=00:05:10.00 bitrate=N/A speed=   1x    frame= 3107 fps= 10 q=-0.0 size=N/A time=00:05:10.60 bitrate=N/A speed=   1x    frame= 3112 fps= 10 q=-0.0 size=N/A time=00:05:11.10 bitrate=N/A speed=   1x    frame= 3117 fps= 10 q=-0.0 size=N/A time=00:05:11.60 bitrate=N/A speed=   1x    [hls @ 0x5bfe41e2f580] Opening '/home/user/vnc-hls/hls/lane4/segment_20250603-131252.ts' for writing
[hls @ 0x5bfe41e2f580] Opening '/home/user/vnc-hls/hls/lane4/stream.m3u8.tmp' for writing
frame= 3123 fps= 10 q=-0.0 size=N/A time=00:05:12.20 bitrate=N/A speed=   1x    frame= 3128 fps= 10 q=-0.0 size=N/A time=00:05:12.70 bitrate=N/A speed=   1x    frame= 3133 fps= 10 q=-0.0 size=N/A time=00:05:13.20 bitrate=N/A speed=   1x    frame= 3138 fps= 10 q=-0.0 size=N/A time=00:05:13.70 bitrate=N/A speed=   1x    frame= 3144 fps= 10 q=-0.0 size=N/A time=00:05:14.30 bitrate=N/A speed=   1x    frame= 3149 fps= 10 q=-0.0 size=N/A time=00:05:14.80 bitrate=N/A speed=   1x    frame= 3154 fps= 10 q=-0.0 size=N/A time=00:05:15.30 bitrate=N/A speed=   1x    frame= 3159 fps= 10 q=-0.0 size=N/A time=00:05:15.80 bitrate=N/A speed=   1x    frame= 3165 fps= 10 q=-0.0 size=N/A time=00:05:16.40 bitrate=N/A speed=   1x    frame= 3171 fps= 10 q=-0.0 size=N/A time=00:05:17.00 bitrate=N/A speed=   1x    frame= 3176 fps= 10 q=-0.0 size=N/A time=00:05:17.50 bitrate=N/A speed=   1x    [hls @ 0x5bfe41e2f580] Opening '/home/user/vnc-hls/hls/lane4/segment_20250603-131255.ts' for writing
[hls @ 0x5bfe41e2f580] Opening '/home/user/vnc-hls/hls/lane4/stream.m3u8.tmp' for writing
frame= 3182 fps= 10 q=-0.0 size=N/A time=00:05:18.10 bitrate=N/A speed=   1x    frame= 3187 fps= 10 q=-0.0 size=N/A time=00:05:18.60 bitrate=N/A speed=   1x    frame= 3193 fps= 10 q=-0.0 size=N/A time=00:05:19.20 bitrate=N/A speed=   1x    frame= 3199 fps= 10 q=-0.0 size=N/A time=00:05:19.80 bitrate=N/A speed=   1x    frame= 3204 fps= 10 q=-0.0 size=N/A time=00:05:20.30 bitrate=N/A speed=   1x    frame= 3209 fps= 10 q=-0.0 size=N/A time=00:05:20.80 bitrate=N/A speed=   1x    [hls @ 0x5bfe41e2f580] Opening '/home/user/vnc-hls/hls/lane4/segment_20250603-131301.ts' for writing
[hls @ 0x5bfe41e2f580] Opening '/home/user/vnc-hls/hls/lane4/stream.m3u8.tmp' for writing
frame= 3215 fps= 10 q=-0.0 size=N/A time=00:05:21.40 bitrate=N/A speed=   1x    frame= 3221 fps= 10 q=-0.0 size=N/A time=00:05:22.00 bitrate=N/A speed=   1x    